<mxfile host="app.diagrams.net" agent="Mozilla/5.0 (Windows NT 10.0; Win64; x64) AppleWebKit/537.36 (KHTML, like Gecko) Chrome/130.0.0.0 Safari/537.36 Edg/130.0.0.0" version="24.7.10">
  <diagram name="第 1 页" id="YTj-ouMBXCMW4iAn0mXQ">
    <mxGraphModel dx="1006" dy="709" grid="1" gridSize="10" guides="1" tooltips="1" connect="1" arrows="1" fold="1" page="1" pageScale="1" pageWidth="1169" pageHeight="827" math="0" shadow="0">
      <root>
        <mxCell id="0" />
        <mxCell id="1" parent="0" />
        <mxCell id="hWDj6rnSfcaq-5pzCuS0-516" value="" style="rounded=1;whiteSpace=wrap;html=1;gradientDirection=radial;opacity=30;fillStyle=solid;container=0;fillColor=#f9f7ed;strokeColor=#36393d;" vertex="1" parent="1">
          <mxGeometry x="537.97" y="210" width="110" height="200" as="geometry" />
        </mxCell>
        <mxCell id="hWDj6rnSfcaq-5pzCuS0-5" value="" style="rounded=1;whiteSpace=wrap;html=1;gradientDirection=radial;opacity=30;fillStyle=solid;fillColor=#e1d5e7;strokeColor=#9673a6;container=0;" vertex="1" parent="1">
          <mxGeometry x="348" y="194" width="110" height="239.61" as="geometry" />
        </mxCell>
        <mxCell id="hWDj6rnSfcaq-5pzCuS0-7" value="&lt;font face=&quot;宋体&quot;&gt;&lt;span style=&quot;font-size: 20px;&quot;&gt;&lt;b&gt;异质性人群疾病组划分&lt;/b&gt;&lt;/span&gt;&lt;/font&gt;" style="text;html=1;align=center;verticalAlign=middle;resizable=0;points=[];autosize=1;strokeColor=none;fillColor=none;" vertex="1" parent="1">
          <mxGeometry x="54" y="516" width="230" height="40" as="geometry" />
        </mxCell>
        <mxCell id="hWDj6rnSfcaq-5pzCuS0-9" value="&lt;font face=&quot;宋体&quot;&gt;&lt;span style=&quot;font-size: 20px;&quot;&gt;&lt;b&gt;多病种协同预警模型构建&lt;/b&gt;&lt;/span&gt;&lt;/font&gt;" style="text;html=1;align=center;verticalAlign=middle;resizable=0;points=[];autosize=1;strokeColor=none;fillColor=none;" vertex="1" parent="1">
          <mxGeometry x="378.5" y="516.84" width="250" height="40" as="geometry" />
        </mxCell>
        <mxCell id="hWDj6rnSfcaq-5pzCuS0-82" value="&lt;span style=&quot;font-size: 14px;&quot;&gt;&lt;font face=&quot;宋体&quot;&gt;输入层&lt;/font&gt;&lt;/span&gt;" style="text;html=1;align=center;verticalAlign=middle;resizable=0;points=[];autosize=1;strokeColor=none;fillColor=none;container=0;" vertex="1" parent="1">
          <mxGeometry x="301" y="443.39" width="70" height="30" as="geometry" />
        </mxCell>
        <mxCell id="hWDj6rnSfcaq-5pzCuS0-83" value="&lt;font face=&quot;宋体&quot; style=&quot;font-size: 14px;&quot;&gt;隐藏层&lt;/font&gt;" style="text;html=1;align=center;verticalAlign=middle;resizable=0;points=[];autosize=1;strokeColor=none;fillColor=none;container=0;" vertex="1" parent="1">
          <mxGeometry x="401" y="443.39" width="70" height="30" as="geometry" />
        </mxCell>
        <mxCell id="hWDj6rnSfcaq-5pzCuS0-84" value="&lt;font face=&quot;宋体&quot; style=&quot;font-size: 14px;&quot;&gt;输出层&lt;/font&gt;" style="text;html=1;align=center;verticalAlign=middle;resizable=0;points=[];autosize=1;strokeColor=none;fillColor=none;container=0;" vertex="1" parent="1">
          <mxGeometry x="533.12" y="442.61" width="70" height="30" as="geometry" />
        </mxCell>
        <mxCell id="hWDj6rnSfcaq-5pzCuS0-85" value="" style="shape=curlyBracket;whiteSpace=wrap;html=1;rounded=1;flipH=1;labelPosition=right;verticalLabelPosition=middle;align=left;verticalAlign=middle;rotation=90;container=0;" vertex="1" parent="1">
          <mxGeometry x="329.53" y="423.21" width="7.69" height="38.48" as="geometry" />
        </mxCell>
        <mxCell id="hWDj6rnSfcaq-5pzCuS0-86" value="" style="shape=curlyBracket;whiteSpace=wrap;html=1;rounded=1;flipH=1;labelPosition=right;verticalLabelPosition=middle;align=left;verticalAlign=middle;rotation=90;container=0;" vertex="1" parent="1">
          <mxGeometry x="435.61" y="360.53" width="7.69" height="163.82" as="geometry" />
        </mxCell>
        <mxCell id="hWDj6rnSfcaq-5pzCuS0-87" value="" style="shape=curlyBracket;whiteSpace=wrap;html=1;rounded=1;flipH=1;labelPosition=right;verticalLabelPosition=middle;align=left;verticalAlign=middle;rotation=90;container=0;" vertex="1" parent="1">
          <mxGeometry x="598.48" y="368.07" width="7.69" height="148.77" as="geometry" />
        </mxCell>
        <mxCell id="hWDj6rnSfcaq-5pzCuS0-88" value="" style="shape=curlyBracket;whiteSpace=wrap;html=1;rounded=1;flipH=1;labelPosition=right;verticalLabelPosition=middle;align=left;verticalAlign=middle;rotation=-90;container=0;" vertex="1" parent="1">
          <mxGeometry x="385.58000000000004" y="115.49" width="7.69" height="146.24" as="geometry" />
        </mxCell>
        <mxCell id="hWDj6rnSfcaq-5pzCuS0-89" value="&lt;font face=&quot;宋体&quot; style=&quot;font-size: 14px;&quot;&gt;共享层&lt;/font&gt;" style="text;html=1;align=center;verticalAlign=middle;resizable=0;points=[];autosize=1;strokeColor=none;fillColor=none;container=0;" vertex="1" parent="1">
          <mxGeometry x="352.15" y="158.61" width="70" height="30" as="geometry" />
        </mxCell>
        <mxCell id="hWDj6rnSfcaq-5pzCuS0-90" value="" style="shape=curlyBracket;whiteSpace=wrap;html=1;rounded=1;flipH=1;labelPosition=right;verticalLabelPosition=middle;align=left;verticalAlign=middle;rotation=-90;container=0;" vertex="1" parent="1">
          <mxGeometry x="569.22" y="84.64" width="7.69" height="207.94" as="geometry" />
        </mxCell>
        <mxCell id="hWDj6rnSfcaq-5pzCuS0-91" value="&lt;span style=&quot;font-size: 14px;&quot;&gt;&lt;font face=&quot;宋体&quot;&gt;特定任务层&lt;/font&gt;&lt;/span&gt;" style="text;html=1;align=center;verticalAlign=middle;resizable=0;points=[];autosize=1;strokeColor=none;fillColor=none;container=0;" vertex="1" parent="1">
          <mxGeometry x="527" y="158.61" width="90" height="30" as="geometry" />
        </mxCell>
        <mxCell id="hWDj6rnSfcaq-5pzCuS0-92" value="" style="endArrow=classic;html=1;rounded=0;" edge="1" parent="1">
          <mxGeometry width="50" height="50" relative="1" as="geometry">
            <mxPoint x="379.15999999999997" y="321.44" as="sourcePoint" />
            <mxPoint x="393" y="321" as="targetPoint" />
          </mxGeometry>
        </mxCell>
        <mxCell id="hWDj6rnSfcaq-5pzCuS0-93" value="" style="endArrow=classic;html=1;rounded=0;" edge="1" parent="1">
          <mxGeometry width="50" height="50" relative="1" as="geometry">
            <mxPoint x="415.15999999999997" y="321.44" as="sourcePoint" />
            <mxPoint x="429" y="321" as="targetPoint" />
          </mxGeometry>
        </mxCell>
        <mxCell id="hWDj6rnSfcaq-5pzCuS0-94" value="" style="endArrow=classic;html=1;rounded=0;" edge="1" parent="1">
          <mxGeometry width="50" height="50" relative="1" as="geometry">
            <mxPoint x="458.90999999999997" y="321.21" as="sourcePoint" />
            <mxPoint x="472.75" y="320.77" as="targetPoint" />
          </mxGeometry>
        </mxCell>
        <mxCell id="hWDj6rnSfcaq-5pzCuS0-95" value="" style="endArrow=classic;html=1;rounded=0;" edge="1" parent="1">
          <mxGeometry width="50" height="50" relative="1" as="geometry">
            <mxPoint x="496.90999999999997" y="321.21" as="sourcePoint" />
            <mxPoint x="510.75" y="320.77" as="targetPoint" />
          </mxGeometry>
        </mxCell>
        <mxCell id="hWDj6rnSfcaq-5pzCuS0-96" value="" style="endArrow=classic;html=1;rounded=0;fontStyle=1" edge="1" parent="1">
          <mxGeometry width="50" height="50" relative="1" as="geometry">
            <mxPoint x="534.13" y="321.02" as="sourcePoint" />
            <mxPoint x="547.97" y="320.58" as="targetPoint" />
          </mxGeometry>
        </mxCell>
        <mxCell id="hWDj6rnSfcaq-5pzCuS0-97" value="Y" style="rounded=0;whiteSpace=wrap;html=1;fillColor=#f8cecc;strokeColor=#b85450;fontSize=14;container=0;" vertex="1" parent="1">
          <mxGeometry x="660.24" y="310.61" width="20" height="20" as="geometry" />
        </mxCell>
        <mxCell id="hWDj6rnSfcaq-5pzCuS0-98" style="edgeStyle=orthogonalEdgeStyle;rounded=0;orthogonalLoop=1;jettySize=auto;html=1;exitX=1;exitY=0.5;exitDx=0;exitDy=0;entryX=0;entryY=0.5;entryDx=0;entryDy=0;" edge="1" parent="1">
          <mxGeometry relative="1" as="geometry">
            <mxPoint x="632.97" y="320.99309500000004" as="sourcePoint" />
            <mxPoint x="662.24" y="321.61" as="targetPoint" />
          </mxGeometry>
        </mxCell>
        <mxCell id="hWDj6rnSfcaq-5pzCuS0-99" value="&lt;font face=&quot;Times New Roman&quot;&gt;W&lt;span style=&quot;font-size: 10px;&quot;&gt;&lt;sub&gt;2&lt;/sub&gt;&lt;/span&gt;&lt;/font&gt;" style="text;html=1;align=center;verticalAlign=middle;resizable=0;points=[];autosize=1;strokeColor=none;fillColor=none;container=0;" vertex="1" parent="1">
          <mxGeometry x="625.24" y="297.61" width="40" height="30" as="geometry" />
        </mxCell>
        <mxCell id="hWDj6rnSfcaq-5pzCuS0-100" value="" style="shape=actor;whiteSpace=wrap;html=1;fillColor=#1ba1e2;strokeColor=#006EAF;fontColor=#ffffff;opacity=80;gradientColor=#fb8633;gradientDirection=east;" vertex="1" parent="1">
          <mxGeometry x="75" y="271.61" width="20" height="30" as="geometry" />
        </mxCell>
        <mxCell id="hWDj6rnSfcaq-5pzCuS0-101" value="" style="shape=actor;whiteSpace=wrap;html=1;fillColor=#fa6800;strokeColor=#C73500;fontColor=#000000;opacity=80;gradientColor=#80ba45;gradientDirection=west;" vertex="1" parent="1">
          <mxGeometry x="75" y="301.61" width="20" height="30" as="geometry" />
        </mxCell>
        <mxCell id="hWDj6rnSfcaq-5pzCuS0-102" value="" style="shape=actor;whiteSpace=wrap;html=1;fillColor=#60a917;strokeColor=#2D7600;fontColor=#ffffff;opacity=80;" vertex="1" parent="1">
          <mxGeometry x="75" y="331.61" width="20" height="30" as="geometry" />
        </mxCell>
        <mxCell id="hWDj6rnSfcaq-5pzCuS0-103" value="" style="shape=actor;whiteSpace=wrap;html=1;fillColor=#60a917;strokeColor=#006EAF;fontColor=#ffffff;opacity=80;gradientColor=#1ba1e2;gradientDirection=east;" vertex="1" parent="1">
          <mxGeometry x="95" y="271.61" width="20" height="30" as="geometry" />
        </mxCell>
        <mxCell id="hWDj6rnSfcaq-5pzCuS0-104" value="" style="shape=actor;whiteSpace=wrap;html=1;fillColor=#fa6800;strokeColor=#C73500;fontColor=#000000;opacity=80;" vertex="1" parent="1">
          <mxGeometry x="115" y="271.61" width="20" height="30" as="geometry" />
        </mxCell>
        <mxCell id="hWDj6rnSfcaq-5pzCuS0-105" value="" style="shape=actor;whiteSpace=wrap;html=1;fillColor=#1ba1e2;strokeColor=#006EAF;fontColor=#ffffff;opacity=80;" vertex="1" parent="1">
          <mxGeometry x="95" y="301.61" width="20" height="30" as="geometry" />
        </mxCell>
        <mxCell id="hWDj6rnSfcaq-5pzCuS0-106" value="" style="shape=actor;whiteSpace=wrap;html=1;fillColor=#60a917;strokeColor=#2D7600;fontColor=#ffffff;gradientColor=#1ba1e2;" vertex="1" parent="1">
          <mxGeometry x="115" y="301.61" width="20" height="30" as="geometry" />
        </mxCell>
        <mxCell id="hWDj6rnSfcaq-5pzCuS0-107" value="" style="shape=actor;whiteSpace=wrap;html=1;fillColor=#fb8633;strokeColor=#006EAF;fontColor=#ffffff;gradientColor=#60a917;gradientDirection=west;" vertex="1" parent="1">
          <mxGeometry x="95" y="331.61" width="20" height="30" as="geometry" />
        </mxCell>
        <mxCell id="hWDj6rnSfcaq-5pzCuS0-108" value="" style="shape=actor;whiteSpace=wrap;html=1;fillColor=#1ba1e2;strokeColor=#006EAF;fontColor=#ffffff;opacity=80;" vertex="1" parent="1">
          <mxGeometry x="115" y="331.61" width="20" height="30" as="geometry" />
        </mxCell>
        <mxCell id="hWDj6rnSfcaq-5pzCuS0-109" value="" style="shape=actor;whiteSpace=wrap;html=1;fillColor=#60a917;strokeColor=#2D7600;fontColor=#ffffff;opacity=80;" vertex="1" parent="1">
          <mxGeometry x="135" y="271.61" width="20" height="30" as="geometry" />
        </mxCell>
        <mxCell id="hWDj6rnSfcaq-5pzCuS0-110" value="" style="shape=actor;whiteSpace=wrap;html=1;fillColor=#fa6800;strokeColor=#C73500;fontColor=#000000;opacity=80;gradientColor=#60a917;gradientDirection=east;" vertex="1" parent="1">
          <mxGeometry x="135" y="301.61" width="20" height="30" as="geometry" />
        </mxCell>
        <mxCell id="hWDj6rnSfcaq-5pzCuS0-111" value="" style="shape=actor;whiteSpace=wrap;html=1;fillColor=#fa6800;strokeColor=#C73500;fontColor=#000000;opacity=80;gradientColor=#49b4e8;gradientDirection=east;" vertex="1" parent="1">
          <mxGeometry x="135" y="331.61" width="20" height="30" as="geometry" />
        </mxCell>
        <mxCell id="hWDj6rnSfcaq-5pzCuS0-112" value="" style="endArrow=classic;html=1;rounded=0;fillColor=#1ba1e2;strokeColor=#006EAF;strokeWidth=2;entryX=0;entryY=0.75;entryDx=0;entryDy=0;" edge="1" parent="1" target="hWDj6rnSfcaq-5pzCuS0-122">
          <mxGeometry width="50" height="50" relative="1" as="geometry">
            <mxPoint x="120" y="270.22" as="sourcePoint" />
            <mxPoint x="180" y="232.61" as="targetPoint" />
          </mxGeometry>
        </mxCell>
        <mxCell id="hWDj6rnSfcaq-5pzCuS0-113" value="" style="endArrow=classic;html=1;rounded=0;fillColor=#60a917;strokeColor=#2D7600;strokeWidth=2;fontSize=14;" edge="1" parent="1">
          <mxGeometry width="50" height="50" relative="1" as="geometry">
            <mxPoint x="120" y="370" as="sourcePoint" />
            <mxPoint x="198" y="420" as="targetPoint" />
          </mxGeometry>
        </mxCell>
        <mxCell id="hWDj6rnSfcaq-5pzCuS0-114" value="" style="group" vertex="1" connectable="0" parent="1">
          <mxGeometry x="197" y="299.11" width="60" height="40.89" as="geometry" />
        </mxCell>
        <mxCell id="hWDj6rnSfcaq-5pzCuS0-115" value="" style="shape=actor;whiteSpace=wrap;html=1;fillColor=#fa6800;strokeColor=#C73500;fontColor=#000000;opacity=80;" vertex="1" parent="hWDj6rnSfcaq-5pzCuS0-114">
          <mxGeometry width="20" height="27.26" as="geometry" />
        </mxCell>
        <mxCell id="hWDj6rnSfcaq-5pzCuS0-116" value="" style="shape=actor;whiteSpace=wrap;html=1;fillColor=#fa6800;strokeColor=#C73500;fontColor=#000000;opacity=80;" vertex="1" parent="hWDj6rnSfcaq-5pzCuS0-114">
          <mxGeometry x="20" width="20" height="27.26" as="geometry" />
        </mxCell>
        <mxCell id="hWDj6rnSfcaq-5pzCuS0-117" value="" style="shape=actor;whiteSpace=wrap;html=1;fillColor=#fa6800;strokeColor=#C73500;fontColor=#000000;opacity=80;" vertex="1" parent="hWDj6rnSfcaq-5pzCuS0-114">
          <mxGeometry x="10" y="4.543333333333334" width="20" height="27.26" as="geometry" />
        </mxCell>
        <mxCell id="hWDj6rnSfcaq-5pzCuS0-118" value="" style="shape=actor;whiteSpace=wrap;html=1;fillColor=#fa6800;strokeColor=#C73500;fontColor=#000000;opacity=80;" vertex="1" parent="hWDj6rnSfcaq-5pzCuS0-114">
          <mxGeometry x="40" width="20" height="27.26" as="geometry" />
        </mxCell>
        <mxCell id="hWDj6rnSfcaq-5pzCuS0-119" value="" style="shape=actor;whiteSpace=wrap;html=1;fillColor=#fa6800;strokeColor=#C73500;fontColor=#000000;opacity=80;" vertex="1" parent="hWDj6rnSfcaq-5pzCuS0-114">
          <mxGeometry x="30" y="4.543333333333334" width="20" height="27.26" as="geometry" />
        </mxCell>
        <mxCell id="hWDj6rnSfcaq-5pzCuS0-120" value="" style="shape=actor;whiteSpace=wrap;html=1;fillColor=#fa6800;strokeColor=#C73500;fontColor=#000000;opacity=80;" vertex="1" parent="hWDj6rnSfcaq-5pzCuS0-114">
          <mxGeometry x="20" y="13.63" width="20" height="27.26" as="geometry" />
        </mxCell>
        <mxCell id="hWDj6rnSfcaq-5pzCuS0-121" value="" style="group" vertex="1" connectable="0" parent="1">
          <mxGeometry x="197" y="200" width="60" height="40" as="geometry" />
        </mxCell>
        <mxCell id="hWDj6rnSfcaq-5pzCuS0-122" value="" style="shape=actor;whiteSpace=wrap;html=1;fillColor=#1ba1e2;strokeColor=#006EAF;fontColor=#ffffff;opacity=80;" vertex="1" parent="hWDj6rnSfcaq-5pzCuS0-121">
          <mxGeometry width="20" height="26.666666666666668" as="geometry" />
        </mxCell>
        <mxCell id="hWDj6rnSfcaq-5pzCuS0-123" value="" style="shape=actor;whiteSpace=wrap;html=1;fillColor=#1ba1e2;strokeColor=#006EAF;fontColor=#ffffff;opacity=80;" vertex="1" parent="hWDj6rnSfcaq-5pzCuS0-121">
          <mxGeometry x="20" width="20" height="26.666666666666668" as="geometry" />
        </mxCell>
        <mxCell id="hWDj6rnSfcaq-5pzCuS0-124" value="" style="shape=actor;whiteSpace=wrap;html=1;fillColor=#1ba1e2;strokeColor=#006EAF;fontColor=#ffffff;opacity=80;" vertex="1" parent="hWDj6rnSfcaq-5pzCuS0-121">
          <mxGeometry x="10" y="4.444444444444445" width="20" height="26.666666666666668" as="geometry" />
        </mxCell>
        <mxCell id="hWDj6rnSfcaq-5pzCuS0-125" value="" style="shape=actor;whiteSpace=wrap;html=1;fillColor=#1ba1e2;strokeColor=#006EAF;fontColor=#ffffff;opacity=80;" vertex="1" parent="hWDj6rnSfcaq-5pzCuS0-121">
          <mxGeometry x="40" width="20" height="26.666666666666668" as="geometry" />
        </mxCell>
        <mxCell id="hWDj6rnSfcaq-5pzCuS0-126" value="" style="shape=actor;whiteSpace=wrap;html=1;fillColor=#1ba1e2;strokeColor=#006EAF;fontColor=#ffffff;opacity=80;" vertex="1" parent="hWDj6rnSfcaq-5pzCuS0-121">
          <mxGeometry x="30" y="4.444444444444445" width="20" height="26.666666666666668" as="geometry" />
        </mxCell>
        <mxCell id="hWDj6rnSfcaq-5pzCuS0-127" value="" style="shape=actor;whiteSpace=wrap;html=1;fillColor=#1ba1e2;strokeColor=#006EAF;fontColor=#ffffff;opacity=80;" vertex="1" parent="hWDj6rnSfcaq-5pzCuS0-121">
          <mxGeometry x="20" y="13.333333333333334" width="20" height="26.666666666666668" as="geometry" />
        </mxCell>
        <mxCell id="hWDj6rnSfcaq-5pzCuS0-128" value="" style="group" vertex="1" connectable="0" parent="1">
          <mxGeometry x="197" y="400" width="60" height="40" as="geometry" />
        </mxCell>
        <mxCell id="hWDj6rnSfcaq-5pzCuS0-129" value="" style="shape=actor;whiteSpace=wrap;html=1;fillColor=#60a917;strokeColor=#2D7600;fontColor=#ffffff;opacity=80;" vertex="1" parent="hWDj6rnSfcaq-5pzCuS0-128">
          <mxGeometry width="20" height="26.666666666666668" as="geometry" />
        </mxCell>
        <mxCell id="hWDj6rnSfcaq-5pzCuS0-130" value="" style="shape=actor;whiteSpace=wrap;html=1;fillColor=#60a917;strokeColor=#2D7600;fontColor=#ffffff;opacity=80;" vertex="1" parent="hWDj6rnSfcaq-5pzCuS0-128">
          <mxGeometry x="20" width="20" height="26.666666666666668" as="geometry" />
        </mxCell>
        <mxCell id="hWDj6rnSfcaq-5pzCuS0-131" value="" style="shape=actor;whiteSpace=wrap;html=1;fillColor=#60a917;strokeColor=#2D7600;fontColor=#ffffff;opacity=80;" vertex="1" parent="hWDj6rnSfcaq-5pzCuS0-128">
          <mxGeometry x="10" y="4.444444444444445" width="20" height="26.666666666666668" as="geometry" />
        </mxCell>
        <mxCell id="hWDj6rnSfcaq-5pzCuS0-132" value="" style="shape=actor;whiteSpace=wrap;html=1;fillColor=#60a917;strokeColor=#2D7600;fontColor=#ffffff;opacity=80;" vertex="1" parent="hWDj6rnSfcaq-5pzCuS0-128">
          <mxGeometry x="40" width="20" height="26.666666666666668" as="geometry" />
        </mxCell>
        <mxCell id="hWDj6rnSfcaq-5pzCuS0-133" value="" style="shape=actor;whiteSpace=wrap;html=1;fillColor=#60a917;strokeColor=#2D7600;fontColor=#ffffff;opacity=80;" vertex="1" parent="hWDj6rnSfcaq-5pzCuS0-128">
          <mxGeometry x="30" y="4.444444444444445" width="20" height="26.666666666666668" as="geometry" />
        </mxCell>
        <mxCell id="hWDj6rnSfcaq-5pzCuS0-134" value="" style="shape=actor;whiteSpace=wrap;html=1;fillColor=#60a917;strokeColor=#2D7600;fontColor=#ffffff;opacity=80;" vertex="1" parent="hWDj6rnSfcaq-5pzCuS0-128">
          <mxGeometry x="20" y="13.333333333333334" width="20" height="26.666666666666668" as="geometry" />
        </mxCell>
        <mxCell id="hWDj6rnSfcaq-5pzCuS0-135" value="" style="rounded=0;whiteSpace=wrap;html=1;container=0;" vertex="1" parent="1">
          <mxGeometry x="356.9375" y="218.60999999999999" width="21.562500000000004" height="208.39" as="geometry" />
        </mxCell>
        <mxCell id="hWDj6rnSfcaq-5pzCuS0-136" value="" style="ellipse;whiteSpace=wrap;html=1;aspect=fixed;fillColor=#f5f5f5;strokeColor=#666666;container=0;gradientColor=#b3b3b3;" vertex="1" parent="1">
          <mxGeometry x="361.25" y="254.86985999999996" width="11.5434375" height="11.5434375" as="geometry" />
        </mxCell>
        <mxCell id="hWDj6rnSfcaq-5pzCuS0-137" value="" style="ellipse;whiteSpace=wrap;html=1;aspect=fixed;fillColor=#f5f5f5;strokeColor=#666666;container=0;gradientColor=#b3b3b3;" vertex="1" parent="1">
          <mxGeometry x="361.25" y="282.05116434782605" width="11.5434375" height="11.5434375" as="geometry" />
        </mxCell>
        <mxCell id="hWDj6rnSfcaq-5pzCuS0-138" value="" style="ellipse;whiteSpace=wrap;html=1;aspect=fixed;fillColor=#f5f5f5;strokeColor=#666666;container=0;gradientColor=#b3b3b3;" vertex="1" parent="1">
          <mxGeometry x="361.25" y="309.5858256521739" width="11.5434375" height="11.5434375" as="geometry" />
        </mxCell>
        <mxCell id="hWDj6rnSfcaq-5pzCuS0-139" value="" style="ellipse;whiteSpace=wrap;html=1;aspect=fixed;fillColor=#f5f5f5;strokeColor=#666666;container=0;gradientColor=#b3b3b3;" vertex="1" parent="1">
          <mxGeometry x="361.25" y="336.04229521739126" width="11.5434375" height="11.5434375" as="geometry" />
        </mxCell>
        <mxCell id="hWDj6rnSfcaq-5pzCuS0-140" value="" style="ellipse;whiteSpace=wrap;html=1;aspect=fixed;fillColor=#f5f5f5;strokeColor=#666666;container=0;gradientColor=#b3b3b3;" vertex="1" parent="1">
          <mxGeometry x="361.25" y="373.19007782608696" width="11.5434375" height="11.5434375" as="geometry" />
        </mxCell>
        <mxCell id="hWDj6rnSfcaq-5pzCuS0-141" value="&lt;b&gt;&lt;font color=&quot;#85878a&quot; style=&quot;font-size: 15px;&quot; face=&quot;Times New Roman&quot;&gt;...&lt;/font&gt;&lt;/b&gt;" style="text;html=1;align=center;verticalAlign=middle;resizable=0;points=[];autosize=1;strokeColor=none;fillColor=none;rotation=90;container=0;" vertex="1" parent="1">
          <mxGeometry x="357.53125" y="346.0802608695652" width="30" height="30" as="geometry" />
        </mxCell>
        <mxCell id="hWDj6rnSfcaq-5pzCuS0-142" value="" style="ellipse;whiteSpace=wrap;html=1;aspect=fixed;fillColor=#f5f5f5;strokeColor=#666666;container=0;gradientColor=#b3b3b3;" vertex="1" parent="1">
          <mxGeometry x="361.40093750000005" y="399.8186956521739" width="11.5434375" height="11.5434375" as="geometry" />
        </mxCell>
        <mxCell id="hWDj6rnSfcaq-5pzCuS0-143" value="" style="ellipse;whiteSpace=wrap;html=1;aspect=fixed;fillColor=#f5f5f5;strokeColor=#666666;container=0;gradientColor=#b3b3b3;" vertex="1" parent="1">
          <mxGeometry x="361.40093750000005" y="227.6885556521739" width="11.5434375" height="11.5434375" as="geometry" />
        </mxCell>
        <mxCell id="hWDj6rnSfcaq-5pzCuS0-144" value="" style="rounded=0;whiteSpace=wrap;html=1;container=0;" vertex="1" parent="1">
          <mxGeometry x="392.875" y="218.60999999999999" width="21.562500000000004" height="208.39" as="geometry" />
        </mxCell>
        <mxCell id="hWDj6rnSfcaq-5pzCuS0-145" value="" style="ellipse;whiteSpace=wrap;html=1;aspect=fixed;fillColor=#f5f5f5;strokeColor=#666666;container=0;gradientColor=#b3b3b3;" vertex="1" parent="1">
          <mxGeometry x="397.1875" y="254.86985999999996" width="11.5434375" height="11.5434375" as="geometry" />
        </mxCell>
        <mxCell id="hWDj6rnSfcaq-5pzCuS0-146" value="" style="ellipse;whiteSpace=wrap;html=1;aspect=fixed;fillColor=#f5f5f5;strokeColor=#666666;container=0;gradientColor=#b3b3b3;" vertex="1" parent="1">
          <mxGeometry x="397.1875" y="282.05116434782605" width="11.5434375" height="11.5434375" as="geometry" />
        </mxCell>
        <mxCell id="hWDj6rnSfcaq-5pzCuS0-147" value="" style="ellipse;whiteSpace=wrap;html=1;aspect=fixed;fillColor=#f5f5f5;strokeColor=#666666;container=0;gradientColor=#b3b3b3;" vertex="1" parent="1">
          <mxGeometry x="397.1875" y="309.5858256521739" width="11.5434375" height="11.5434375" as="geometry" />
        </mxCell>
        <mxCell id="hWDj6rnSfcaq-5pzCuS0-148" value="" style="ellipse;whiteSpace=wrap;html=1;aspect=fixed;fillColor=#f5f5f5;strokeColor=#666666;container=0;gradientColor=#b3b3b3;" vertex="1" parent="1">
          <mxGeometry x="397.1875" y="336.04229521739126" width="11.5434375" height="11.5434375" as="geometry" />
        </mxCell>
        <mxCell id="hWDj6rnSfcaq-5pzCuS0-149" value="" style="ellipse;whiteSpace=wrap;html=1;aspect=fixed;fillColor=#f5f5f5;strokeColor=#666666;container=0;gradientColor=#b3b3b3;" vertex="1" parent="1">
          <mxGeometry x="397.1875" y="373.19007782608696" width="11.5434375" height="11.5434375" as="geometry" />
        </mxCell>
        <mxCell id="hWDj6rnSfcaq-5pzCuS0-150" value="&lt;b&gt;&lt;font color=&quot;#85878a&quot; style=&quot;font-size: 15px;&quot; face=&quot;Times New Roman&quot;&gt;...&lt;/font&gt;&lt;/b&gt;" style="text;html=1;align=center;verticalAlign=middle;resizable=0;points=[];autosize=1;strokeColor=none;fillColor=none;rotation=90;container=0;" vertex="1" parent="1">
          <mxGeometry x="393.46875" y="346.0802608695652" width="30" height="30" as="geometry" />
        </mxCell>
        <mxCell id="hWDj6rnSfcaq-5pzCuS0-151" value="" style="rounded=0;whiteSpace=wrap;html=1;container=0;" vertex="1" parent="1">
          <mxGeometry x="428.8125" y="218.60999999999999" width="21.562500000000004" height="208.39" as="geometry" />
        </mxCell>
        <mxCell id="hWDj6rnSfcaq-5pzCuS0-152" value="" style="ellipse;whiteSpace=wrap;html=1;aspect=fixed;fillColor=#f5f5f5;strokeColor=#666666;container=0;gradientColor=#b3b3b3;" vertex="1" parent="1">
          <mxGeometry x="433.125" y="284.2166082608696" width="11.5434375" height="11.5434375" as="geometry" />
        </mxCell>
        <mxCell id="hWDj6rnSfcaq-5pzCuS0-153" value="" style="ellipse;whiteSpace=wrap;html=1;aspect=fixed;fillColor=#f5f5f5;strokeColor=#666666;container=0;gradientColor=#b3b3b3;" vertex="1" parent="1">
          <mxGeometry x="433.125" y="310.67307782608697" width="11.5434375" height="11.5434375" as="geometry" />
        </mxCell>
        <mxCell id="hWDj6rnSfcaq-5pzCuS0-154" value="" style="ellipse;whiteSpace=wrap;html=1;aspect=fixed;fillColor=#f5f5f5;strokeColor=#666666;container=0;gradientColor=#b3b3b3;" vertex="1" parent="1">
          <mxGeometry x="433.125" y="347.8208604347826" width="11.5434375" height="11.5434375" as="geometry" />
        </mxCell>
        <mxCell id="hWDj6rnSfcaq-5pzCuS0-155" value="&lt;b&gt;&lt;font color=&quot;#85878a&quot; style=&quot;font-size: 15px;&quot; face=&quot;Times New Roman&quot;&gt;...&lt;/font&gt;&lt;/b&gt;" style="text;html=1;align=center;verticalAlign=middle;resizable=0;points=[];autosize=1;strokeColor=none;fillColor=none;rotation=90;container=0;" vertex="1" parent="1">
          <mxGeometry x="429.40625" y="320.7110434782609" width="30" height="30" as="geometry" />
        </mxCell>
        <mxCell id="hWDj6rnSfcaq-5pzCuS0-156" value="" style="endArrow=classic;html=1;rounded=0;" edge="1" parent="1">
          <mxGeometry width="50" height="50" relative="1" as="geometry">
            <mxPoint x="342.15999999999997" y="321.44" as="sourcePoint" />
            <mxPoint x="356" y="321" as="targetPoint" />
          </mxGeometry>
        </mxCell>
        <mxCell id="hWDj6rnSfcaq-5pzCuS0-157" value="" style="endArrow=classic;html=1;rounded=0;" edge="1" parent="1">
          <mxGeometry width="50" height="50" relative="1" as="geometry">
            <mxPoint x="459.90999999999997" y="260.21" as="sourcePoint" />
            <mxPoint x="473.75" y="259.77" as="targetPoint" />
          </mxGeometry>
        </mxCell>
        <mxCell id="hWDj6rnSfcaq-5pzCuS0-158" value="&lt;font face=&quot;Times New Roman&quot;&gt;y&lt;span style=&quot;font-size: 10px;&quot;&gt;&lt;sub&gt;2&lt;/sub&gt;&lt;/span&gt;&lt;/font&gt;" style="rounded=0;whiteSpace=wrap;html=1;fillColor=#ffe6cc;strokeColor=#d79b00;container=0;" vertex="1" parent="1">
          <mxGeometry x="615.97" y="311.61" width="20" height="20" as="geometry" />
        </mxCell>
        <mxCell id="hWDj6rnSfcaq-5pzCuS0-159" value="" style="rounded=0;whiteSpace=wrap;html=1;fillColor=#ffe6cc;strokeColor=#d79b00;container=0;" vertex="1" parent="1">
          <mxGeometry x="473.75" y="300" width="21.56" height="40" as="geometry" />
        </mxCell>
        <mxCell id="hWDj6rnSfcaq-5pzCuS0-160" value="" style="ellipse;whiteSpace=wrap;html=1;aspect=fixed;fillColor=#fa6800;strokeColor=#C73500;fontColor=#000000;container=0;" vertex="1" parent="1">
          <mxGeometry x="478.0625" y="308.87005130434784" width="11.5434375" height="11.5434375" as="geometry" />
        </mxCell>
        <mxCell id="hWDj6rnSfcaq-5pzCuS0-161" value="&lt;b&gt;&lt;font color=&quot;#fa6800&quot; style=&quot;font-size: 15px;&quot; face=&quot;Times New Roman&quot;&gt;...&lt;/font&gt;&lt;/b&gt;" style="text;html=1;align=center;verticalAlign=middle;resizable=0;points=[];autosize=1;strokeColor=none;fillColor=none;rotation=90;container=0;" vertex="1" parent="1">
          <mxGeometry x="474.34375" y="315.90801695652175" width="30" height="30" as="geometry" />
        </mxCell>
        <mxCell id="hWDj6rnSfcaq-5pzCuS0-162" value="" style="rounded=0;whiteSpace=wrap;html=1;fillColor=#ffe6cc;strokeColor=#d79b00;container=0;" vertex="1" parent="1">
          <mxGeometry x="510.9075" y="304.77065565217384" width="22.281250000000004" height="30.452121304347823" as="geometry" />
        </mxCell>
        <mxCell id="hWDj6rnSfcaq-5pzCuS0-163" value="" style="ellipse;whiteSpace=wrap;html=1;aspect=fixed;strokeColor=#fa6800;container=0;" vertex="1" parent="1">
          <mxGeometry x="516.5209375000001" y="315.0247117391304" width="10.0996875" height="10.0996875" as="geometry" />
        </mxCell>
        <mxCell id="hWDj6rnSfcaq-5pzCuS0-164" value="" style="rounded=0;whiteSpace=wrap;html=1;container=0;" vertex="1" parent="1">
          <mxGeometry x="321" y="218.60999999999999" width="21.562500000000004" height="208.39" as="geometry" />
        </mxCell>
        <mxCell id="hWDj6rnSfcaq-5pzCuS0-165" value="" style="ellipse;whiteSpace=wrap;html=1;aspect=fixed;fillColor=#fff2cc;strokeColor=#d6b656;container=0;gradientColor=#ffd966;opacity=80;" vertex="1" parent="1">
          <mxGeometry x="325.3125" y="254.86985999999996" width="11.5434375" height="11.5434375" as="geometry" />
        </mxCell>
        <mxCell id="hWDj6rnSfcaq-5pzCuS0-166" value="" style="ellipse;whiteSpace=wrap;html=1;aspect=fixed;fillColor=#fff2cc;strokeColor=#d6b656;container=0;gradientColor=#ffd966;opacity=80;" vertex="1" parent="1">
          <mxGeometry x="325.3125" y="282.05116434782605" width="11.5434375" height="11.5434375" as="geometry" />
        </mxCell>
        <mxCell id="hWDj6rnSfcaq-5pzCuS0-167" value="" style="ellipse;whiteSpace=wrap;html=1;aspect=fixed;fillColor=#fff2cc;strokeColor=#d6b656;container=0;gradientColor=#ffd966;opacity=80;" vertex="1" parent="1">
          <mxGeometry x="325.3125" y="309.5858256521739" width="11.5434375" height="11.5434375" as="geometry" />
        </mxCell>
        <mxCell id="hWDj6rnSfcaq-5pzCuS0-168" value="" style="ellipse;whiteSpace=wrap;html=1;aspect=fixed;fillColor=#fff2cc;strokeColor=#d6b656;container=0;gradientColor=#ffd966;opacity=80;" vertex="1" parent="1">
          <mxGeometry x="325.3125" y="336.04229521739126" width="11.5434375" height="11.5434375" as="geometry" />
        </mxCell>
        <mxCell id="hWDj6rnSfcaq-5pzCuS0-169" value="" style="ellipse;whiteSpace=wrap;html=1;aspect=fixed;fillColor=#fff2cc;strokeColor=#d6b656;container=0;gradientColor=#ffd966;opacity=80;" vertex="1" parent="1">
          <mxGeometry x="325.3125" y="373.19007782608696" width="11.5434375" height="11.5434375" as="geometry" />
        </mxCell>
        <mxCell id="hWDj6rnSfcaq-5pzCuS0-170" value="&lt;b&gt;&lt;font color=&quot;#080808&quot; style=&quot;font-size: 15px;&quot; face=&quot;Times New Roman&quot;&gt;...&lt;/font&gt;&lt;/b&gt;" style="text;html=1;align=center;verticalAlign=middle;resizable=0;points=[];autosize=1;strokeColor=none;fillColor=none;rotation=90;container=0;" vertex="1" parent="1">
          <mxGeometry x="320.59375" y="345.0802608695652" width="30" height="30" as="geometry" />
        </mxCell>
        <mxCell id="hWDj6rnSfcaq-5pzCuS0-171" value="&lt;font face=&quot;Times New Roman&quot;&gt;RNN&lt;/font&gt;" style="text;html=1;align=center;verticalAlign=middle;resizable=0;points=[];autosize=1;strokeColor=none;fillColor=none;" vertex="1" parent="1">
          <mxGeometry x="378.5" y="189" width="50" height="30" as="geometry" />
        </mxCell>
        <mxCell id="hWDj6rnSfcaq-5pzCuS0-175" value="" style="endArrow=classic;html=1;rounded=0;entryX=0;entryY=0.25;entryDx=0;entryDy=0;fillColor=#fa6800;strokeColor=#C73500;strokeWidth=2;" edge="1" parent="1">
          <mxGeometry width="50" height="50" relative="1" as="geometry">
            <mxPoint x="156" y="322.46000000000004" as="sourcePoint" />
            <mxPoint x="196" y="322.21000000000004" as="targetPoint" />
          </mxGeometry>
        </mxCell>
        <mxCell id="hWDj6rnSfcaq-5pzCuS0-176" value="" style="endArrow=classic;html=1;rounded=0;entryX=0;entryY=0.25;entryDx=0;entryDy=0;strokeWidth=2;" edge="1" parent="1">
          <mxGeometry width="50" height="50" relative="1" as="geometry">
            <mxPoint x="271" y="321.86" as="sourcePoint" />
            <mxPoint x="311" y="321.61" as="targetPoint" />
          </mxGeometry>
        </mxCell>
        <mxCell id="hWDj6rnSfcaq-5pzCuS0-177" value="&lt;font style=&quot;font-size: 14px;&quot; face=&quot;Times New Roman&quot;&gt;P&lt;sub&gt;1&lt;/sub&gt;&lt;/font&gt;" style="text;html=1;align=center;verticalAlign=middle;resizable=0;points=[];autosize=1;strokeColor=none;fillColor=none;" vertex="1" parent="1">
          <mxGeometry x="118" y="228" width="40" height="30" as="geometry" />
        </mxCell>
        <mxCell id="hWDj6rnSfcaq-5pzCuS0-178" value="&lt;font style=&quot;font-size: 14px;&quot; face=&quot;Times New Roman&quot;&gt;P&lt;/font&gt;&lt;font style=&quot;font-size: 11.6667px;&quot; face=&quot;Times New Roman&quot;&gt;&lt;sub&gt;2&lt;/sub&gt;&lt;/font&gt;" style="text;html=1;align=center;verticalAlign=middle;resizable=0;points=[];autosize=1;strokeColor=none;fillColor=none;" vertex="1" parent="1">
          <mxGeometry x="150" y="294.15" width="40" height="30" as="geometry" />
        </mxCell>
        <mxCell id="hWDj6rnSfcaq-5pzCuS0-179" value="&lt;font style=&quot;font-size: 14px;&quot; face=&quot;Times New Roman&quot;&gt;P&lt;/font&gt;&lt;font style=&quot;font-size: 11.6667px;&quot; face=&quot;Times New Roman&quot;&gt;&lt;sub&gt;3&lt;/sub&gt;&lt;/font&gt;" style="text;html=1;align=center;verticalAlign=middle;resizable=0;points=[];autosize=1;strokeColor=none;fillColor=none;" vertex="1" parent="1">
          <mxGeometry x="118" y="381.53" width="40" height="30" as="geometry" />
        </mxCell>
        <mxCell id="hWDj6rnSfcaq-5pzCuS0-180" value="" style="endArrow=classic;html=1;rounded=0;" edge="1" parent="1">
          <mxGeometry width="50" height="50" relative="1" as="geometry">
            <mxPoint x="458.90999999999997" y="380.92999999999995" as="sourcePoint" />
            <mxPoint x="472.75" y="380.49" as="targetPoint" />
          </mxGeometry>
        </mxCell>
        <mxCell id="hWDj6rnSfcaq-5pzCuS0-181" value="" style="endArrow=classic;html=1;rounded=0;" edge="1" parent="1">
          <mxGeometry width="50" height="50" relative="1" as="geometry">
            <mxPoint x="496.90999999999997" y="380.92999999999995" as="sourcePoint" />
            <mxPoint x="510.75" y="380.49" as="targetPoint" />
          </mxGeometry>
        </mxCell>
        <mxCell id="hWDj6rnSfcaq-5pzCuS0-182" value="" style="endArrow=classic;html=1;rounded=0;fontStyle=1" edge="1" parent="1">
          <mxGeometry width="50" height="50" relative="1" as="geometry">
            <mxPoint x="534.13" y="380.74" as="sourcePoint" />
            <mxPoint x="547.97" y="380.29999999999995" as="targetPoint" />
          </mxGeometry>
        </mxCell>
        <mxCell id="hWDj6rnSfcaq-5pzCuS0-183" value="&lt;font face=&quot;Times New Roman&quot;&gt;W&lt;span style=&quot;font-size: 8.33333px;&quot;&gt;&lt;sub&gt;3&lt;/sub&gt;&lt;/span&gt;&lt;/font&gt;" style="text;html=1;align=center;verticalAlign=middle;resizable=0;points=[];autosize=1;strokeColor=none;fillColor=none;container=0;" vertex="1" parent="1">
          <mxGeometry x="638.96" y="351.53000000000003" width="40" height="30" as="geometry" />
        </mxCell>
        <mxCell id="hWDj6rnSfcaq-5pzCuS0-184" value="&lt;font face=&quot;Times New Roman&quot;&gt;y&lt;span style=&quot;font-size: 8.33333px;&quot;&gt;&lt;sub&gt;3&lt;/sub&gt;&lt;/span&gt;&lt;/font&gt;" style="rounded=0;whiteSpace=wrap;html=1;fillColor=#d5e8d4;strokeColor=#82b366;container=0;" vertex="1" parent="1">
          <mxGeometry x="615.97" y="371.33000000000004" width="20" height="20" as="geometry" />
        </mxCell>
        <mxCell id="hWDj6rnSfcaq-5pzCuS0-185" value="" style="rounded=0;whiteSpace=wrap;html=1;fillColor=#d5e8d4;strokeColor=#82b366;container=0;" vertex="1" parent="1">
          <mxGeometry x="473.75" y="359.72" width="21.56" height="40" as="geometry" />
        </mxCell>
        <mxCell id="hWDj6rnSfcaq-5pzCuS0-186" value="" style="ellipse;whiteSpace=wrap;html=1;aspect=fixed;fillColor=#60a917;strokeColor=#2D7600;fontColor=#ffffff;container=0;" vertex="1" parent="1">
          <mxGeometry x="478.0625" y="368.59005130434787" width="11.5434375" height="11.5434375" as="geometry" />
        </mxCell>
        <mxCell id="hWDj6rnSfcaq-5pzCuS0-187" value="" style="rounded=0;whiteSpace=wrap;html=1;fillColor=#d5e8d4;strokeColor=#82b366;container=0;" vertex="1" parent="1">
          <mxGeometry x="510.9075" y="364.4906556521738" width="22.281250000000004" height="30.452121304347823" as="geometry" />
        </mxCell>
        <mxCell id="hWDj6rnSfcaq-5pzCuS0-188" value="" style="ellipse;whiteSpace=wrap;html=1;aspect=fixed;strokeColor=#60a917;container=0;" vertex="1" parent="1">
          <mxGeometry x="516.5209375000001" y="374.74471173913037" width="10.0996875" height="10.0996875" as="geometry" />
        </mxCell>
        <mxCell id="hWDj6rnSfcaq-5pzCuS0-189" value="&lt;b&gt;&lt;font color=&quot;#60a917&quot; style=&quot;font-size: 15px;&quot; face=&quot;Times New Roman&quot;&gt;...&lt;/font&gt;&lt;/b&gt;" style="text;html=1;align=center;verticalAlign=middle;resizable=0;points=[];autosize=1;strokeColor=none;fillColor=none;rotation=90;container=0;" vertex="1" parent="1">
          <mxGeometry x="474.34375" y="375.20801695652176" width="30" height="30" as="geometry" />
        </mxCell>
        <mxCell id="hWDj6rnSfcaq-5pzCuS0-190" value="" style="endArrow=classic;html=1;rounded=0;" edge="1" parent="1">
          <mxGeometry width="50" height="50" relative="1" as="geometry">
            <mxPoint x="497.6" y="258.82" as="sourcePoint" />
            <mxPoint x="511.44000000000005" y="258.38" as="targetPoint" />
          </mxGeometry>
        </mxCell>
        <mxCell id="hWDj6rnSfcaq-5pzCuS0-191" value="" style="endArrow=classic;html=1;rounded=0;fontStyle=1" edge="1" parent="1">
          <mxGeometry width="50" height="50" relative="1" as="geometry">
            <mxPoint x="534.82" y="258.63" as="sourcePoint" />
            <mxPoint x="548.6600000000001" y="258.19" as="targetPoint" />
          </mxGeometry>
        </mxCell>
        <mxCell id="hWDj6rnSfcaq-5pzCuS0-192" value="&lt;font face=&quot;Times New Roman&quot;&gt;y&lt;span style=&quot;font-size: 8.33333px;&quot;&gt;&lt;sub&gt;1&lt;/sub&gt;&lt;/span&gt;&lt;/font&gt;" style="rounded=0;whiteSpace=wrap;html=1;fillColor=#dae8fc;strokeColor=#6c8ebf;container=0;" vertex="1" parent="1">
          <mxGeometry x="616.6600000000001" y="249.22000000000003" width="20" height="20" as="geometry" />
        </mxCell>
        <mxCell id="hWDj6rnSfcaq-5pzCuS0-193" value="" style="rounded=0;whiteSpace=wrap;html=1;fillColor=#dae8fc;strokeColor=#6c8ebf;container=0;" vertex="1" parent="1">
          <mxGeometry x="474.44000000000005" y="237.61" width="21.56" height="40" as="geometry" />
        </mxCell>
        <mxCell id="hWDj6rnSfcaq-5pzCuS0-194" value="" style="ellipse;whiteSpace=wrap;html=1;aspect=fixed;fillColor=#1ba1e2;strokeColor=#006EAF;fontColor=#ffffff;container=0;" vertex="1" parent="1">
          <mxGeometry x="478.75250000000005" y="246.48005130434785" width="11.5434375" height="11.5434375" as="geometry" />
        </mxCell>
        <mxCell id="hWDj6rnSfcaq-5pzCuS0-195" value="&lt;b&gt;&lt;font color=&quot;#1ba1e2&quot; style=&quot;font-size: 15px;&quot; face=&quot;Times New Roman&quot;&gt;...&lt;/font&gt;&lt;/b&gt;" style="text;html=1;align=center;verticalAlign=middle;resizable=0;points=[];autosize=1;strokeColor=none;fillColor=none;rotation=90;container=0;" vertex="1" parent="1">
          <mxGeometry x="475.03375000000005" y="253.51801695652176" width="30" height="30" as="geometry" />
        </mxCell>
        <mxCell id="hWDj6rnSfcaq-5pzCuS0-196" value="" style="rounded=0;whiteSpace=wrap;html=1;fillColor=#dae8fc;strokeColor=#6c8ebf;container=0;" vertex="1" parent="1">
          <mxGeometry x="511.5975000000001" y="242.38065565217386" width="22.281250000000004" height="30.452121304347823" as="geometry" />
        </mxCell>
        <mxCell id="hWDj6rnSfcaq-5pzCuS0-197" value="" style="ellipse;whiteSpace=wrap;html=1;aspect=fixed;strokeColor=#1ba1e2;container=0;" vertex="1" parent="1">
          <mxGeometry x="517.2109375000001" y="252.6347117391304" width="10.0996875" height="10.0996875" as="geometry" />
        </mxCell>
        <mxCell id="hWDj6rnSfcaq-5pzCuS0-198" value="" style="endArrow=classic;html=1;rounded=0;entryX=0.981;entryY=0.459;entryDx=0;entryDy=0;entryPerimeter=0;" edge="1" parent="1" target="hWDj6rnSfcaq-5pzCuS0-99">
          <mxGeometry width="50" height="50" relative="1" as="geometry">
            <mxPoint x="636.66" y="258.61" as="sourcePoint" />
            <mxPoint x="686.66" y="208.61" as="targetPoint" />
          </mxGeometry>
        </mxCell>
        <mxCell id="hWDj6rnSfcaq-5pzCuS0-199" value="" style="endArrow=classic;html=1;rounded=0;entryX=1.016;entryY=1.149;entryDx=0;entryDy=0;entryPerimeter=0;" edge="1" parent="1" target="hWDj6rnSfcaq-5pzCuS0-99">
          <mxGeometry width="50" height="50" relative="1" as="geometry">
            <mxPoint x="636.66" y="380.61" as="sourcePoint" />
            <mxPoint x="686.66" y="330.61" as="targetPoint" />
          </mxGeometry>
        </mxCell>
        <mxCell id="hWDj6rnSfcaq-5pzCuS0-200" value="&lt;font face=&quot;Times New Roman&quot;&gt;W&lt;span style=&quot;font-size: 8.33333px;&quot;&gt;&lt;sub&gt;1&lt;/sub&gt;&lt;/span&gt;&lt;/font&gt;" style="text;html=1;align=center;verticalAlign=middle;resizable=0;points=[];autosize=1;strokeColor=none;fillColor=none;container=0;" vertex="1" parent="1">
          <mxGeometry x="637.6600000000001" y="264.61" width="40" height="30" as="geometry" />
        </mxCell>
        <mxCell id="hWDj6rnSfcaq-5pzCuS0-490" value="&lt;font face=&quot;Times New Roman&quot;&gt;y&lt;span style=&quot;font-size: 10px;&quot;&gt;&lt;sub&gt;2&lt;/sub&gt;&lt;/span&gt;&lt;/font&gt;" style="rounded=0;whiteSpace=wrap;html=1;fillColor=#ffe6cc;strokeColor=#d79b00;container=0;" vertex="1" parent="1">
          <mxGeometry x="550" y="310.89" width="20" height="20" as="geometry" />
        </mxCell>
        <mxCell id="hWDj6rnSfcaq-5pzCuS0-492" value="&lt;font face=&quot;Times New Roman&quot;&gt;y&lt;span style=&quot;font-size: 8.33333px;&quot;&gt;&lt;sub&gt;3&lt;/sub&gt;&lt;/span&gt;&lt;/font&gt;" style="rounded=0;whiteSpace=wrap;html=1;fillColor=#d5e8d4;strokeColor=#82b366;container=0;" vertex="1" parent="1">
          <mxGeometry x="550" y="370.61" width="20" height="20" as="geometry" />
        </mxCell>
        <mxCell id="hWDj6rnSfcaq-5pzCuS0-493" value="&lt;font face=&quot;Times New Roman&quot;&gt;y&lt;span style=&quot;font-size: 8.33333px;&quot;&gt;&lt;sub&gt;1&lt;/sub&gt;&lt;/span&gt;&lt;/font&gt;" style="rounded=0;whiteSpace=wrap;html=1;fillColor=#dae8fc;strokeColor=#6c8ebf;container=0;" vertex="1" parent="1">
          <mxGeometry x="550.69" y="248.50000000000003" width="20" height="20" as="geometry" />
        </mxCell>
        <mxCell id="hWDj6rnSfcaq-5pzCuS0-498" value="&lt;span style=&quot;font-size: 14px;&quot;&gt;&lt;font face=&quot;宋体&quot;&gt;成本敏感学习&lt;/font&gt;&lt;/span&gt;" style="text;html=1;align=center;verticalAlign=middle;resizable=0;points=[];autosize=1;strokeColor=none;fillColor=none;container=0;" vertex="1" parent="1">
          <mxGeometry x="537.9699999999999" y="207.61" width="110" height="30" as="geometry" />
        </mxCell>
        <mxCell id="hWDj6rnSfcaq-5pzCuS0-502" value="" style="endArrow=classic;html=1;rounded=0;fontStyle=1;entryX=0;entryY=0.5;entryDx=0;entryDy=0;" edge="1" parent="1" target="hWDj6rnSfcaq-5pzCuS0-158">
          <mxGeometry width="50" height="50" relative="1" as="geometry">
            <mxPoint x="570.69" y="321.02" as="sourcePoint" />
            <mxPoint x="584.53" y="320.58" as="targetPoint" />
          </mxGeometry>
        </mxCell>
        <mxCell id="hWDj6rnSfcaq-5pzCuS0-503" value="" style="endArrow=classic;html=1;rounded=0;fontStyle=1;entryX=0;entryY=0.5;entryDx=0;entryDy=0;" edge="1" parent="1" target="hWDj6rnSfcaq-5pzCuS0-184">
          <mxGeometry width="50" height="50" relative="1" as="geometry">
            <mxPoint x="570.69" y="380.74" as="sourcePoint" />
            <mxPoint x="584.53" y="380.29999999999995" as="targetPoint" />
          </mxGeometry>
        </mxCell>
        <mxCell id="hWDj6rnSfcaq-5pzCuS0-504" value="" style="endArrow=classic;html=1;rounded=0;fontStyle=1;entryX=0;entryY=0.5;entryDx=0;entryDy=0;" edge="1" parent="1" target="hWDj6rnSfcaq-5pzCuS0-192">
          <mxGeometry width="50" height="50" relative="1" as="geometry">
            <mxPoint x="571.3800000000001" y="258.63" as="sourcePoint" />
            <mxPoint x="580" y="259" as="targetPoint" />
          </mxGeometry>
        </mxCell>
        <mxCell id="hWDj6rnSfcaq-5pzCuS0-509" value="" style="endArrow=classic;html=1;rounded=0;fillColor=#fff2cc;strokeColor=#d6b656;" edge="1" parent="1">
          <mxGeometry width="50" height="50" relative="1" as="geometry">
            <mxPoint x="600" y="265" as="sourcePoint" />
            <mxPoint x="570.69" y="265" as="targetPoint" />
          </mxGeometry>
        </mxCell>
        <mxCell id="hWDj6rnSfcaq-5pzCuS0-511" value="" style="endArrow=classic;html=1;rounded=0;fillColor=#fff2cc;strokeColor=#d6b656;" edge="1" parent="1">
          <mxGeometry width="50" height="50" relative="1" as="geometry">
            <mxPoint x="600" y="327.61" as="sourcePoint" />
            <mxPoint x="570.69" y="327.61" as="targetPoint" />
          </mxGeometry>
        </mxCell>
        <mxCell id="hWDj6rnSfcaq-5pzCuS0-512" value="" style="endArrow=classic;html=1;rounded=0;fillColor=#fff2cc;strokeColor=#d6b656;" edge="1" parent="1">
          <mxGeometry width="50" height="50" relative="1" as="geometry">
            <mxPoint x="600" y="387.84000000000003" as="sourcePoint" />
            <mxPoint x="570.69" y="387.84000000000003" as="targetPoint" />
          </mxGeometry>
        </mxCell>
        <mxCell id="hWDj6rnSfcaq-5pzCuS0-513" value="" style="endArrow=classic;html=1;rounded=0;fillColor=#fff2cc;strokeColor=#d6b656;exitX=0.918;exitY=0.863;exitDx=0;exitDy=0;exitPerimeter=0;" edge="1" parent="1">
          <mxGeometry width="50" height="50" relative="1" as="geometry">
            <mxPoint x="636.9499999999998" y="237.5" as="sourcePoint" />
            <mxPoint x="550.69" y="236.96" as="targetPoint" />
          </mxGeometry>
        </mxCell>
        <mxCell id="hWDj6rnSfcaq-5pzCuS0-519" value="&lt;font face=&quot;Times New Roman&quot;&gt;&lt;sub style=&quot;&quot;&gt;&lt;span style=&quot;font-size: 12px;&quot;&gt;C&lt;/span&gt;&lt;span style=&quot;font-size: 8.33333px;&quot;&gt;1&lt;/span&gt;&lt;/sub&gt;&lt;/font&gt;" style="text;html=1;align=center;verticalAlign=middle;resizable=0;points=[];autosize=1;strokeColor=none;fillColor=none;container=0;" vertex="1" parent="1">
          <mxGeometry x="572.97" y="255.73000000000002" width="40" height="30" as="geometry" />
        </mxCell>
        <mxCell id="hWDj6rnSfcaq-5pzCuS0-520" value="&lt;font face=&quot;Times New Roman&quot;&gt;&lt;sub style=&quot;&quot;&gt;&lt;span style=&quot;font-size: 12px;&quot;&gt;C&lt;/span&gt;&lt;span style=&quot;font-size: 8.33333px;&quot;&gt;2&lt;/span&gt;&lt;/sub&gt;&lt;/font&gt;" style="text;html=1;align=center;verticalAlign=middle;resizable=0;points=[];autosize=1;strokeColor=none;fillColor=none;container=0;" vertex="1" parent="1">
          <mxGeometry x="572.97" y="319.13" width="40" height="30" as="geometry" />
        </mxCell>
        <mxCell id="hWDj6rnSfcaq-5pzCuS0-521" value="&lt;font face=&quot;Times New Roman&quot;&gt;&lt;sub style=&quot;&quot;&gt;&lt;span style=&quot;font-size: 12px;&quot;&gt;C&lt;/span&gt;&lt;span style=&quot;font-size: 8.33333px;&quot;&gt;3&lt;/span&gt;&lt;/sub&gt;&lt;/font&gt;" style="text;html=1;align=center;verticalAlign=middle;resizable=0;points=[];autosize=1;strokeColor=none;fillColor=none;container=0;" vertex="1" parent="1">
          <mxGeometry x="575" y="379.36" width="40" height="30" as="geometry" />
        </mxCell>
        <mxCell id="hWDj6rnSfcaq-5pzCuS0-522" value="&lt;b style=&quot;forced-color-adjust: none; color: rgb(0, 0, 0); font-family: 宋体; font-size: 20px; font-style: normal; font-variant-ligatures: normal; font-variant-caps: normal; letter-spacing: normal; orphans: 2; text-align: center; text-indent: 0px; text-transform: none; widows: 2; word-spacing: 0px; -webkit-text-stroke-width: 0px; white-space: nowrap; background-color: rgb(251, 251, 251); text-decoration-thickness: initial; text-decoration-style: initial; text-decoration-color: initial;&quot;&gt;预警模型在线部署&lt;/b&gt;" style="text;whiteSpace=wrap;html=1;" vertex="1" parent="1">
          <mxGeometry x="700" y="516.84" width="260" height="50" as="geometry" />
        </mxCell>
        <mxCell id="hWDj6rnSfcaq-5pzCuS0-523" value="" style="ellipse;shape=cloud;whiteSpace=wrap;html=1;fillColor=#dae8fc;strokeColor=#6c8ebf;gradientColor=#7ea6e0;" vertex="1" parent="1">
          <mxGeometry x="860" y="191.61" width="120" height="68.39" as="geometry" />
        </mxCell>
      </root>
    </mxGraphModel>
  </diagram>
</mxfile>
